<mxfile host="app.diagrams.net" modified="2023-10-27T06:48:28.862Z" agent="Mozilla/5.0 (Windows NT 10.0; Win64; x64) AppleWebKit/537.36 (KHTML, like Gecko) Chrome/116.0.0.0 Safari/537.36" etag="WOduYX42r8sUvwljjZiY" version="22.0.8" type="device">
  <diagram id="Z0xCGGKe95wPUNtXOjTv" name="Page-1">
    <mxGraphModel dx="880" dy="1631" grid="1" gridSize="10" guides="1" tooltips="1" connect="1" arrows="1" fold="1" page="1" pageScale="1" pageWidth="827" pageHeight="1169" math="0" shadow="0">
      <root>
        <mxCell id="0" />
        <mxCell id="1" parent="0" />
        <mxCell id="B8DAwCKZ7RdaNlvgtHEw-4" value="" style="shape=flexArrow;endArrow=classic;html=1;rounded=0;width=52.94117647058824;endSize=85.63529411764706;entryX=0;entryY=0.5;entryDx=0;entryDy=0;fillColor=#F0F7FF;strokeColor=none;endWidth=87.12802768166091;exitX=1;exitY=0.5;exitDx=0;exitDy=0;" parent="1" source="s5ShgJya0dwuhwNrG17C-187" target="B8DAwCKZ7RdaNlvgtHEw-1" edge="1">
          <mxGeometry width="50" height="50" relative="1" as="geometry">
            <mxPoint x="845" y="-530" as="sourcePoint" />
            <mxPoint x="740" y="-150" as="targetPoint" />
          </mxGeometry>
        </mxCell>
        <mxCell id="B8DAwCKZ7RdaNlvgtHEw-3" value="" style="shape=flexArrow;endArrow=classic;html=1;rounded=0;width=52.94117647058824;endSize=85.63529411764706;entryX=0.5;entryY=0;entryDx=0;entryDy=0;fillColor=#F0F7FF;strokeColor=none;endWidth=87.12802768166091;" parent="1" source="s5ShgJya0dwuhwNrG17C-185" target="s5ShgJya0dwuhwNrG17C-187" edge="1">
          <mxGeometry width="50" height="50" relative="1" as="geometry">
            <mxPoint x="1000" y="-630" as="sourcePoint" />
            <mxPoint x="1050" y="-680" as="targetPoint" />
          </mxGeometry>
        </mxCell>
        <mxCell id="s5ShgJya0dwuhwNrG17C-5" value="Aliments" style="swimlane;fontStyle=0;childLayout=stackLayout;horizontal=1;startSize=30;horizontalStack=0;resizeParent=1;resizeParentMax=0;resizeLast=0;collapsible=1;marginBottom=0;whiteSpace=wrap;html=1;fillColor=#dae8fc;strokeColor=#6c8ebf;" parent="1" vertex="1">
          <mxGeometry x="610" y="-508" width="140" height="90" as="geometry" />
        </mxCell>
        <mxCell id="s5ShgJya0dwuhwNrG17C-6" value="id_aliment" style="text;strokeColor=none;fillColor=none;align=left;verticalAlign=middle;spacingLeft=4;spacingRight=4;overflow=hidden;points=[[0,0.5],[1,0.5]];portConstraint=eastwest;rotatable=0;whiteSpace=wrap;html=1;fontStyle=4" parent="s5ShgJya0dwuhwNrG17C-5" vertex="1">
          <mxGeometry y="30" width="140" height="30" as="geometry" />
        </mxCell>
        <mxCell id="s5ShgJya0dwuhwNrG17C-9" value="nom" style="text;strokeColor=none;fillColor=none;align=left;verticalAlign=middle;spacingLeft=4;spacingRight=4;overflow=hidden;points=[[0,0.5],[1,0.5]];portConstraint=eastwest;rotatable=0;whiteSpace=wrap;html=1;" parent="s5ShgJya0dwuhwNrG17C-5" vertex="1">
          <mxGeometry y="60" width="140" height="30" as="geometry" />
        </mxCell>
        <mxCell id="s5ShgJya0dwuhwNrG17C-19" value="Utilisateurs" style="swimlane;fontStyle=0;childLayout=stackLayout;horizontal=1;startSize=30;horizontalStack=0;resizeParent=1;resizeParentMax=0;resizeLast=0;collapsible=1;marginBottom=0;whiteSpace=wrap;html=1;fillColor=#dae8fc;strokeColor=#6c8ebf;" parent="1" vertex="1">
          <mxGeometry y="-508" width="140" height="330" as="geometry" />
        </mxCell>
        <mxCell id="s5ShgJya0dwuhwNrG17C-20" value="id_utilisateur" style="text;strokeColor=none;fillColor=none;align=left;verticalAlign=middle;spacingLeft=4;spacingRight=4;overflow=hidden;points=[[0,0.5],[1,0.5]];portConstraint=eastwest;rotatable=0;whiteSpace=wrap;html=1;fontStyle=4" parent="s5ShgJya0dwuhwNrG17C-19" vertex="1">
          <mxGeometry y="30" width="140" height="30" as="geometry" />
        </mxCell>
        <mxCell id="s5ShgJya0dwuhwNrG17C-21" value="id_niveau_sport" style="text;strokeColor=none;fillColor=none;align=left;verticalAlign=middle;spacingLeft=4;spacingRight=4;overflow=hidden;points=[[0,0.5],[1,0.5]];portConstraint=eastwest;rotatable=0;whiteSpace=wrap;html=1;fontStyle=0" parent="s5ShgJya0dwuhwNrG17C-19" vertex="1">
          <mxGeometry y="60" width="140" height="30" as="geometry" />
        </mxCell>
        <mxCell id="B8DAwCKZ7RdaNlvgtHEw-14" value="role" style="text;strokeColor=none;fillColor=none;align=left;verticalAlign=middle;spacingLeft=4;spacingRight=4;overflow=hidden;points=[[0,0.5],[1,0.5]];portConstraint=eastwest;rotatable=0;whiteSpace=wrap;html=1;fontStyle=0" parent="s5ShgJya0dwuhwNrG17C-19" vertex="1">
          <mxGeometry y="90" width="140" height="30" as="geometry" />
        </mxCell>
        <mxCell id="B8DAwCKZ7RdaNlvgtHEw-15" value="identifiant" style="text;strokeColor=none;fillColor=none;align=left;verticalAlign=middle;spacingLeft=4;spacingRight=4;overflow=hidden;points=[[0,0.5],[1,0.5]];portConstraint=eastwest;rotatable=0;whiteSpace=wrap;html=1;fontStyle=0" parent="s5ShgJya0dwuhwNrG17C-19" vertex="1">
          <mxGeometry y="120" width="140" height="30" as="geometry" />
        </mxCell>
        <mxCell id="s5ShgJya0dwuhwNrG17C-24" value="mdp" style="text;strokeColor=none;fillColor=none;align=left;verticalAlign=middle;spacingLeft=4;spacingRight=4;overflow=hidden;points=[[0,0.5],[1,0.5]];portConstraint=eastwest;rotatable=0;whiteSpace=wrap;html=1;fontStyle=0" parent="s5ShgJya0dwuhwNrG17C-19" vertex="1">
          <mxGeometry y="150" width="140" height="30" as="geometry" />
        </mxCell>
        <mxCell id="s5ShgJya0dwuhwNrG17C-22" value="nom_de_famille" style="text;strokeColor=none;fillColor=none;align=left;verticalAlign=middle;spacingLeft=4;spacingRight=4;overflow=hidden;points=[[0,0.5],[1,0.5]];portConstraint=eastwest;rotatable=0;whiteSpace=wrap;html=1;fontStyle=0" parent="s5ShgJya0dwuhwNrG17C-19" vertex="1">
          <mxGeometry y="180" width="140" height="30" as="geometry" />
        </mxCell>
        <mxCell id="s5ShgJya0dwuhwNrG17C-23" value="prenom" style="text;strokeColor=none;fillColor=none;align=left;verticalAlign=middle;spacingLeft=4;spacingRight=4;overflow=hidden;points=[[0,0.5],[1,0.5]];portConstraint=eastwest;rotatable=0;whiteSpace=wrap;html=1;fontStyle=0" parent="s5ShgJya0dwuhwNrG17C-19" vertex="1">
          <mxGeometry y="210" width="140" height="30" as="geometry" />
        </mxCell>
        <mxCell id="s5ShgJya0dwuhwNrG17C-25" value="genre" style="text;strokeColor=none;fillColor=none;align=left;verticalAlign=middle;spacingLeft=4;spacingRight=4;overflow=hidden;points=[[0,0.5],[1,0.5]];portConstraint=eastwest;rotatable=0;whiteSpace=wrap;html=1;fontStyle=0" parent="s5ShgJya0dwuhwNrG17C-19" vertex="1">
          <mxGeometry y="240" width="140" height="30" as="geometry" />
        </mxCell>
        <mxCell id="s5ShgJya0dwuhwNrG17C-26" value="taille" style="text;strokeColor=none;fillColor=none;align=left;verticalAlign=middle;spacingLeft=4;spacingRight=4;overflow=hidden;points=[[0,0.5],[1,0.5]];portConstraint=eastwest;rotatable=0;whiteSpace=wrap;html=1;fontStyle=0" parent="s5ShgJya0dwuhwNrG17C-19" vertex="1">
          <mxGeometry y="270" width="140" height="30" as="geometry" />
        </mxCell>
        <mxCell id="s5ShgJya0dwuhwNrG17C-27" value="poids" style="text;strokeColor=none;fillColor=none;align=left;verticalAlign=middle;spacingLeft=4;spacingRight=4;overflow=hidden;points=[[0,0.5],[1,0.5]];portConstraint=eastwest;rotatable=0;whiteSpace=wrap;html=1;fontStyle=0" parent="s5ShgJya0dwuhwNrG17C-19" vertex="1">
          <mxGeometry y="300" width="140" height="30" as="geometry" />
        </mxCell>
        <mxCell id="s5ShgJya0dwuhwNrG17C-29" value="CompositionAliment" style="swimlane;fontStyle=0;childLayout=stackLayout;horizontal=1;startSize=30;horizontalStack=0;resizeParent=1;resizeParentMax=0;resizeLast=0;collapsible=1;marginBottom=0;whiteSpace=wrap;html=1;fillColor=#e1d5e7;strokeColor=#9673a6;" parent="1" vertex="1">
          <mxGeometry x="940" y="-538" width="140" height="120" as="geometry" />
        </mxCell>
        <mxCell id="s5ShgJya0dwuhwNrG17C-30" value="id_aliment_parent" style="text;strokeColor=none;fillColor=none;align=left;verticalAlign=middle;spacingLeft=4;spacingRight=4;overflow=hidden;points=[[0,0.5],[1,0.5]];portConstraint=eastwest;rotatable=0;whiteSpace=wrap;html=1;fontStyle=4" parent="s5ShgJya0dwuhwNrG17C-29" vertex="1">
          <mxGeometry y="30" width="140" height="30" as="geometry" />
        </mxCell>
        <mxCell id="s5ShgJya0dwuhwNrG17C-31" value="id_aliment_compose" style="text;strokeColor=none;fillColor=none;align=left;verticalAlign=middle;spacingLeft=4;spacingRight=4;overflow=hidden;points=[[0,0.5],[1,0.5]];portConstraint=eastwest;rotatable=0;whiteSpace=wrap;html=1;fontStyle=4" parent="s5ShgJya0dwuhwNrG17C-29" vertex="1">
          <mxGeometry y="60" width="140" height="30" as="geometry" />
        </mxCell>
        <mxCell id="s5ShgJya0dwuhwNrG17C-32" value="pourcentage_aliment" style="text;strokeColor=none;fillColor=none;align=left;verticalAlign=middle;spacingLeft=4;spacingRight=4;overflow=hidden;points=[[0,0.5],[1,0.5]];portConstraint=eastwest;rotatable=0;whiteSpace=wrap;html=1;fontStyle=0" parent="s5ShgJya0dwuhwNrG17C-29" vertex="1">
          <mxGeometry y="90" width="140" height="30" as="geometry" />
        </mxCell>
        <mxCell id="s5ShgJya0dwuhwNrG17C-33" style="edgeStyle=orthogonalEdgeStyle;rounded=0;orthogonalLoop=1;jettySize=auto;html=1;" parent="1" source="s5ShgJya0dwuhwNrG17C-31" target="s5ShgJya0dwuhwNrG17C-6" edge="1">
          <mxGeometry relative="1" as="geometry" />
        </mxCell>
        <mxCell id="s5ShgJya0dwuhwNrG17C-34" style="edgeStyle=orthogonalEdgeStyle;rounded=0;orthogonalLoop=1;jettySize=auto;html=1;" parent="1" source="s5ShgJya0dwuhwNrG17C-30" target="s5ShgJya0dwuhwNrG17C-6" edge="1">
          <mxGeometry relative="1" as="geometry" />
        </mxCell>
        <mxCell id="s5ShgJya0dwuhwNrG17C-35" value="Repas" style="swimlane;fontStyle=0;childLayout=stackLayout;horizontal=1;startSize=30;horizontalStack=0;resizeParent=1;resizeParentMax=0;resizeLast=0;collapsible=1;marginBottom=0;whiteSpace=wrap;html=1;fillColor=#dae8fc;strokeColor=#6c8ebf;" parent="1" vertex="1">
          <mxGeometry x="200" y="-538" width="140" height="120" as="geometry" />
        </mxCell>
        <mxCell id="s5ShgJya0dwuhwNrG17C-36" value="id_repas" style="text;strokeColor=none;fillColor=none;align=left;verticalAlign=middle;spacingLeft=4;spacingRight=4;overflow=hidden;points=[[0,0.5],[1,0.5]];portConstraint=eastwest;rotatable=0;whiteSpace=wrap;html=1;fontStyle=4" parent="s5ShgJya0dwuhwNrG17C-35" vertex="1">
          <mxGeometry y="30" width="140" height="30" as="geometry" />
        </mxCell>
        <mxCell id="s5ShgJya0dwuhwNrG17C-37" value="id_utilisateur" style="text;strokeColor=none;fillColor=none;align=left;verticalAlign=middle;spacingLeft=4;spacingRight=4;overflow=hidden;points=[[0,0.5],[1,0.5]];portConstraint=eastwest;rotatable=0;whiteSpace=wrap;html=1;fontStyle=0" parent="s5ShgJya0dwuhwNrG17C-35" vertex="1">
          <mxGeometry y="60" width="140" height="30" as="geometry" />
        </mxCell>
        <mxCell id="s5ShgJya0dwuhwNrG17C-38" value="date_mange" style="text;strokeColor=none;fillColor=none;align=left;verticalAlign=middle;spacingLeft=4;spacingRight=4;overflow=hidden;points=[[0,0.5],[1,0.5]];portConstraint=eastwest;rotatable=0;whiteSpace=wrap;html=1;fontStyle=0" parent="s5ShgJya0dwuhwNrG17C-35" vertex="1">
          <mxGeometry y="90" width="140" height="30" as="geometry" />
        </mxCell>
        <mxCell id="s5ShgJya0dwuhwNrG17C-40" style="edgeStyle=orthogonalEdgeStyle;rounded=0;orthogonalLoop=1;jettySize=auto;html=1;" parent="1" source="s5ShgJya0dwuhwNrG17C-37" target="s5ShgJya0dwuhwNrG17C-20" edge="1">
          <mxGeometry relative="1" as="geometry" />
        </mxCell>
        <mxCell id="s5ShgJya0dwuhwNrG17C-41" value="compositionrepas" style="swimlane;fontStyle=0;childLayout=stackLayout;horizontal=1;startSize=30;horizontalStack=0;resizeParent=1;resizeParentMax=0;resizeLast=0;collapsible=1;marginBottom=0;whiteSpace=wrap;html=1;fillColor=#e1d5e7;strokeColor=#9673a6;" parent="1" vertex="1">
          <mxGeometry x="380" y="-538" width="140" height="120" as="geometry" />
        </mxCell>
        <mxCell id="s5ShgJya0dwuhwNrG17C-42" value="id_repas" style="text;strokeColor=none;fillColor=none;align=left;verticalAlign=middle;spacingLeft=4;spacingRight=4;overflow=hidden;points=[[0,0.5],[1,0.5]];portConstraint=eastwest;rotatable=0;whiteSpace=wrap;html=1;fontStyle=4" parent="s5ShgJya0dwuhwNrG17C-41" vertex="1">
          <mxGeometry y="30" width="140" height="30" as="geometry" />
        </mxCell>
        <mxCell id="s5ShgJya0dwuhwNrG17C-43" value="id_aliment" style="text;strokeColor=none;fillColor=none;align=left;verticalAlign=middle;spacingLeft=4;spacingRight=4;overflow=hidden;points=[[0,0.5],[1,0.5]];portConstraint=eastwest;rotatable=0;whiteSpace=wrap;html=1;fontStyle=4" parent="s5ShgJya0dwuhwNrG17C-41" vertex="1">
          <mxGeometry y="60" width="140" height="30" as="geometry" />
        </mxCell>
        <mxCell id="s5ShgJya0dwuhwNrG17C-44" value="quantite" style="text;strokeColor=none;fillColor=none;align=left;verticalAlign=middle;spacingLeft=4;spacingRight=4;overflow=hidden;points=[[0,0.5],[1,0.5]];portConstraint=eastwest;rotatable=0;whiteSpace=wrap;html=1;fontStyle=0" parent="s5ShgJya0dwuhwNrG17C-41" vertex="1">
          <mxGeometry y="90" width="140" height="30" as="geometry" />
        </mxCell>
        <mxCell id="s5ShgJya0dwuhwNrG17C-45" style="edgeStyle=orthogonalEdgeStyle;rounded=0;orthogonalLoop=1;jettySize=auto;html=1;" parent="1" source="s5ShgJya0dwuhwNrG17C-42" target="s5ShgJya0dwuhwNrG17C-36" edge="1">
          <mxGeometry relative="1" as="geometry" />
        </mxCell>
        <mxCell id="s5ShgJya0dwuhwNrG17C-46" style="edgeStyle=orthogonalEdgeStyle;rounded=0;orthogonalLoop=1;jettySize=auto;html=1;" parent="1" source="s5ShgJya0dwuhwNrG17C-43" target="s5ShgJya0dwuhwNrG17C-6" edge="1">
          <mxGeometry relative="1" as="geometry" />
        </mxCell>
        <mxCell id="s5ShgJya0dwuhwNrG17C-201" style="edgeStyle=orthogonalEdgeStyle;rounded=0;orthogonalLoop=1;jettySize=auto;html=1;endArrow=none;endFill=0;" parent="1" source="s5ShgJya0dwuhwNrG17C-222" target="s5ShgJya0dwuhwNrG17C-200" edge="1">
          <mxGeometry relative="1" as="geometry">
            <mxPoint x="730" y="-681" as="sourcePoint" />
          </mxGeometry>
        </mxCell>
        <mxCell id="s5ShgJya0dwuhwNrG17C-205" value="0,n" style="edgeLabel;html=1;align=center;verticalAlign=middle;resizable=0;points=[];" parent="s5ShgJya0dwuhwNrG17C-201" vertex="1" connectable="0">
          <mxGeometry x="-0.4167" y="1" relative="1" as="geometry">
            <mxPoint as="offset" />
          </mxGeometry>
        </mxCell>
        <mxCell id="s5ShgJya0dwuhwNrG17C-173" style="edgeStyle=orthogonalEdgeStyle;rounded=0;orthogonalLoop=1;jettySize=auto;html=1;endArrow=none;endFill=0;" parent="1" source="s5ShgJya0dwuhwNrG17C-137" target="s5ShgJya0dwuhwNrG17C-170" edge="1">
          <mxGeometry relative="1" as="geometry" />
        </mxCell>
        <mxCell id="s5ShgJya0dwuhwNrG17C-175" value="0,n" style="edgeLabel;html=1;align=center;verticalAlign=middle;resizable=0;points=[];" parent="s5ShgJya0dwuhwNrG17C-173" vertex="1" connectable="0">
          <mxGeometry x="-0.0855" y="3" relative="1" as="geometry">
            <mxPoint as="offset" />
          </mxGeometry>
        </mxCell>
        <mxCell id="s5ShgJya0dwuhwNrG17C-288" style="edgeStyle=orthogonalEdgeStyle;rounded=0;orthogonalLoop=1;jettySize=auto;html=1;" parent="1" source="s5ShgJya0dwuhwNrG17C-137" target="s5ShgJya0dwuhwNrG17C-271" edge="1">
          <mxGeometry relative="1" as="geometry" />
        </mxCell>
        <mxCell id="s5ShgJya0dwuhwNrG17C-137" value="Utilisateurs" style="swimlane;fontStyle=0;childLayout=stackLayout;horizontal=1;startSize=30;horizontalStack=0;resizeParent=1;resizeParentMax=0;resizeLast=0;collapsible=1;marginBottom=0;whiteSpace=wrap;html=1;" parent="1" vertex="1">
          <mxGeometry y="-1060" width="140" height="270" as="geometry" />
        </mxCell>
        <mxCell id="s5ShgJya0dwuhwNrG17C-138" value="id_utilisateur" style="text;strokeColor=none;fillColor=none;align=left;verticalAlign=middle;spacingLeft=4;spacingRight=4;overflow=hidden;points=[[0,0.5],[1,0.5]];portConstraint=eastwest;rotatable=0;whiteSpace=wrap;html=1;fontStyle=4" parent="s5ShgJya0dwuhwNrG17C-137" vertex="1">
          <mxGeometry y="30" width="140" height="30" as="geometry" />
        </mxCell>
        <mxCell id="s5ShgJya0dwuhwNrG17C-139" value="role" style="text;strokeColor=none;fillColor=none;align=left;verticalAlign=middle;spacingLeft=4;spacingRight=4;overflow=hidden;points=[[0,0.5],[1,0.5]];portConstraint=eastwest;rotatable=0;whiteSpace=wrap;html=1;fontStyle=0" parent="s5ShgJya0dwuhwNrG17C-137" vertex="1">
          <mxGeometry y="60" width="140" height="30" as="geometry" />
        </mxCell>
        <mxCell id="s5ShgJya0dwuhwNrG17C-140" value="nom_de_famille" style="text;strokeColor=none;fillColor=none;align=left;verticalAlign=middle;spacingLeft=4;spacingRight=4;overflow=hidden;points=[[0,0.5],[1,0.5]];portConstraint=eastwest;rotatable=0;whiteSpace=wrap;html=1;fontStyle=0" parent="s5ShgJya0dwuhwNrG17C-137" vertex="1">
          <mxGeometry y="90" width="140" height="30" as="geometry" />
        </mxCell>
        <mxCell id="s5ShgJya0dwuhwNrG17C-141" value="prenom" style="text;strokeColor=none;fillColor=none;align=left;verticalAlign=middle;spacingLeft=4;spacingRight=4;overflow=hidden;points=[[0,0.5],[1,0.5]];portConstraint=eastwest;rotatable=0;whiteSpace=wrap;html=1;fontStyle=0" parent="s5ShgJya0dwuhwNrG17C-137" vertex="1">
          <mxGeometry y="120" width="140" height="30" as="geometry" />
        </mxCell>
        <mxCell id="s5ShgJya0dwuhwNrG17C-142" value="mdp" style="text;strokeColor=none;fillColor=none;align=left;verticalAlign=middle;spacingLeft=4;spacingRight=4;overflow=hidden;points=[[0,0.5],[1,0.5]];portConstraint=eastwest;rotatable=0;whiteSpace=wrap;html=1;fontStyle=0" parent="s5ShgJya0dwuhwNrG17C-137" vertex="1">
          <mxGeometry y="150" width="140" height="30" as="geometry" />
        </mxCell>
        <mxCell id="s5ShgJya0dwuhwNrG17C-143" value="genre" style="text;strokeColor=none;fillColor=none;align=left;verticalAlign=middle;spacingLeft=4;spacingRight=4;overflow=hidden;points=[[0,0.5],[1,0.5]];portConstraint=eastwest;rotatable=0;whiteSpace=wrap;html=1;fontStyle=0" parent="s5ShgJya0dwuhwNrG17C-137" vertex="1">
          <mxGeometry y="180" width="140" height="30" as="geometry" />
        </mxCell>
        <mxCell id="s5ShgJya0dwuhwNrG17C-144" value="taille" style="text;strokeColor=none;fillColor=none;align=left;verticalAlign=middle;spacingLeft=4;spacingRight=4;overflow=hidden;points=[[0,0.5],[1,0.5]];portConstraint=eastwest;rotatable=0;whiteSpace=wrap;html=1;fontStyle=0" parent="s5ShgJya0dwuhwNrG17C-137" vertex="1">
          <mxGeometry y="210" width="140" height="30" as="geometry" />
        </mxCell>
        <mxCell id="s5ShgJya0dwuhwNrG17C-145" value="poids" style="text;strokeColor=none;fillColor=none;align=left;verticalAlign=middle;spacingLeft=4;spacingRight=4;overflow=hidden;points=[[0,0.5],[1,0.5]];portConstraint=eastwest;rotatable=0;whiteSpace=wrap;html=1;fontStyle=0" parent="s5ShgJya0dwuhwNrG17C-137" vertex="1">
          <mxGeometry y="240" width="140" height="30" as="geometry" />
        </mxCell>
        <mxCell id="s5ShgJya0dwuhwNrG17C-181" style="edgeStyle=orthogonalEdgeStyle;rounded=0;orthogonalLoop=1;jettySize=auto;html=1;endArrow=none;endFill=0;" parent="1" source="s5ShgJya0dwuhwNrG17C-153" target="s5ShgJya0dwuhwNrG17C-164" edge="1">
          <mxGeometry relative="1" as="geometry" />
        </mxCell>
        <mxCell id="s5ShgJya0dwuhwNrG17C-182" value="1,n" style="edgeLabel;html=1;align=center;verticalAlign=middle;resizable=0;points=[];" parent="s5ShgJya0dwuhwNrG17C-181" vertex="1" connectable="0">
          <mxGeometry x="0.2664" y="-1" relative="1" as="geometry">
            <mxPoint as="offset" />
          </mxGeometry>
        </mxCell>
        <mxCell id="s5ShgJya0dwuhwNrG17C-153" value="Repas" style="swimlane;fontStyle=0;childLayout=stackLayout;horizontal=1;startSize=30;horizontalStack=0;resizeParent=1;resizeParentMax=0;resizeLast=0;collapsible=1;marginBottom=0;whiteSpace=wrap;html=1;" parent="1" vertex="1">
          <mxGeometry x="420" y="-1066" width="140" height="90" as="geometry" />
        </mxCell>
        <mxCell id="s5ShgJya0dwuhwNrG17C-154" value="id_repas" style="text;strokeColor=none;fillColor=none;align=left;verticalAlign=middle;spacingLeft=4;spacingRight=4;overflow=hidden;points=[[0,0.5],[1,0.5]];portConstraint=eastwest;rotatable=0;whiteSpace=wrap;html=1;fontStyle=4" parent="s5ShgJya0dwuhwNrG17C-153" vertex="1">
          <mxGeometry y="30" width="140" height="30" as="geometry" />
        </mxCell>
        <mxCell id="s5ShgJya0dwuhwNrG17C-156" value="date_mange" style="text;strokeColor=none;fillColor=none;align=left;verticalAlign=middle;spacingLeft=4;spacingRight=4;overflow=hidden;points=[[0,0.5],[1,0.5]];portConstraint=eastwest;rotatable=0;whiteSpace=wrap;html=1;fontStyle=0" parent="s5ShgJya0dwuhwNrG17C-153" vertex="1">
          <mxGeometry y="60" width="140" height="30" as="geometry" />
        </mxCell>
        <mxCell id="s5ShgJya0dwuhwNrG17C-225" style="edgeStyle=orthogonalEdgeStyle;rounded=0;orthogonalLoop=1;jettySize=auto;html=1;endArrow=none;endFill=0;" parent="1" source="s5ShgJya0dwuhwNrG17C-164" target="s5ShgJya0dwuhwNrG17C-222" edge="1">
          <mxGeometry relative="1" as="geometry">
            <mxPoint x="900" y="-1021" as="targetPoint" />
          </mxGeometry>
        </mxCell>
        <mxCell id="s5ShgJya0dwuhwNrG17C-226" value="0,n" style="edgeLabel;html=1;align=center;verticalAlign=middle;resizable=0;points=[];" parent="s5ShgJya0dwuhwNrG17C-225" vertex="1" connectable="0">
          <mxGeometry x="0.0839" y="-2" relative="1" as="geometry">
            <mxPoint as="offset" />
          </mxGeometry>
        </mxCell>
        <mxCell id="s5ShgJya0dwuhwNrG17C-164" value="repascontenir&lt;br&gt;&lt;br&gt;qtt" style="rounded=1;whiteSpace=wrap;html=1;" parent="1" vertex="1">
          <mxGeometry x="660" y="-1051" width="120" height="60" as="geometry" />
        </mxCell>
        <mxCell id="s5ShgJya0dwuhwNrG17C-174" style="edgeStyle=orthogonalEdgeStyle;rounded=0;orthogonalLoop=1;jettySize=auto;html=1;endArrow=none;endFill=0;" parent="1" source="s5ShgJya0dwuhwNrG17C-170" target="s5ShgJya0dwuhwNrG17C-153" edge="1">
          <mxGeometry relative="1" as="geometry" />
        </mxCell>
        <mxCell id="s5ShgJya0dwuhwNrG17C-176" value="1,1" style="edgeLabel;html=1;align=center;verticalAlign=middle;resizable=0;points=[];" parent="s5ShgJya0dwuhwNrG17C-174" vertex="1" connectable="0">
          <mxGeometry x="-0.0507" y="2" relative="1" as="geometry">
            <mxPoint as="offset" />
          </mxGeometry>
        </mxCell>
        <mxCell id="s5ShgJya0dwuhwNrG17C-170" value="manger" style="rounded=1;whiteSpace=wrap;html=1;" parent="1" vertex="1">
          <mxGeometry x="230" y="-1050" width="120" height="60" as="geometry" />
        </mxCell>
        <mxCell id="s5ShgJya0dwuhwNrG17C-185" value="&lt;b&gt;&lt;font style=&quot;font-size: 120px;&quot;&gt;MCD&lt;/font&gt;&lt;/b&gt;" style="text;html=1;strokeColor=none;fillColor=none;align=center;verticalAlign=middle;whiteSpace=wrap;rounded=0;" parent="1" vertex="1">
          <mxGeometry x="410" y="-950" width="310" height="180" as="geometry" />
        </mxCell>
        <mxCell id="s5ShgJya0dwuhwNrG17C-187" value="&lt;b&gt;&lt;font style=&quot;font-size: 120px;&quot;&gt;MLD&lt;/font&gt;&lt;/b&gt;" style="text;html=1;strokeColor=none;fillColor=none;align=center;verticalAlign=middle;whiteSpace=wrap;rounded=0;" parent="1" vertex="1">
          <mxGeometry x="280" y="-390" width="310" height="180" as="geometry" />
        </mxCell>
        <mxCell id="s5ShgJya0dwuhwNrG17C-194" value="specs" style="swimlane;fontStyle=0;childLayout=stackLayout;horizontal=1;startSize=30;horizontalStack=0;resizeParent=1;resizeParentMax=0;resizeLast=0;collapsible=1;marginBottom=0;whiteSpace=wrap;html=1;" parent="1" vertex="1">
          <mxGeometry x="1070" y="-911" width="140" height="90" as="geometry" />
        </mxCell>
        <mxCell id="s5ShgJya0dwuhwNrG17C-195" value="id_aliment" style="text;strokeColor=none;fillColor=none;align=left;verticalAlign=middle;spacingLeft=4;spacingRight=4;overflow=hidden;points=[[0,0.5],[1,0.5]];portConstraint=eastwest;rotatable=0;whiteSpace=wrap;html=1;fontStyle=4" parent="s5ShgJya0dwuhwNrG17C-194" vertex="1">
          <mxGeometry y="30" width="140" height="30" as="geometry" />
        </mxCell>
        <mxCell id="s5ShgJya0dwuhwNrG17C-196" value="nom" style="text;strokeColor=none;fillColor=none;align=left;verticalAlign=middle;spacingLeft=4;spacingRight=4;overflow=hidden;points=[[0,0.5],[1,0.5]];portConstraint=eastwest;rotatable=0;whiteSpace=wrap;html=1;" parent="s5ShgJya0dwuhwNrG17C-194" vertex="1">
          <mxGeometry y="60" width="140" height="30" as="geometry" />
        </mxCell>
        <mxCell id="s5ShgJya0dwuhwNrG17C-203" style="edgeStyle=orthogonalEdgeStyle;rounded=0;orthogonalLoop=1;jettySize=auto;html=1;endArrow=none;endFill=0;" parent="1" source="s5ShgJya0dwuhwNrG17C-200" target="s5ShgJya0dwuhwNrG17C-194" edge="1">
          <mxGeometry relative="1" as="geometry" />
        </mxCell>
        <mxCell id="s5ShgJya0dwuhwNrG17C-204" value="0,n" style="edgeLabel;html=1;align=center;verticalAlign=middle;resizable=0;points=[];" parent="s5ShgJya0dwuhwNrG17C-203" vertex="1" connectable="0">
          <mxGeometry x="-0.296" y="2" relative="1" as="geometry">
            <mxPoint as="offset" />
          </mxGeometry>
        </mxCell>
        <mxCell id="s5ShgJya0dwuhwNrG17C-200" value="être&lt;br&gt;&lt;br&gt;qtt" style="rounded=1;whiteSpace=wrap;html=1;" parent="1" vertex="1">
          <mxGeometry x="880" y="-896" width="120" height="60" as="geometry" />
        </mxCell>
        <mxCell id="s5ShgJya0dwuhwNrG17C-206" style="edgeStyle=orthogonalEdgeStyle;rounded=0;orthogonalLoop=1;jettySize=auto;html=1;endArrow=none;endFill=0;" parent="1" source="s5ShgJya0dwuhwNrG17C-222" target="s5ShgJya0dwuhwNrG17C-215" edge="1">
          <mxGeometry relative="1" as="geometry" />
        </mxCell>
        <mxCell id="s5ShgJya0dwuhwNrG17C-207" value="0,n" style="edgeLabel;html=1;align=center;verticalAlign=middle;resizable=0;points=[];" parent="s5ShgJya0dwuhwNrG17C-206" vertex="1" connectable="0">
          <mxGeometry x="-0.4539" y="2" relative="1" as="geometry">
            <mxPoint as="offset" />
          </mxGeometry>
        </mxCell>
        <mxCell id="s5ShgJya0dwuhwNrG17C-213" style="edgeStyle=orthogonalEdgeStyle;rounded=0;orthogonalLoop=1;jettySize=auto;html=1;endArrow=none;endFill=0;" parent="1" source="s5ShgJya0dwuhwNrG17C-215" target="s5ShgJya0dwuhwNrG17C-222" edge="1">
          <mxGeometry relative="1" as="geometry" />
        </mxCell>
        <mxCell id="s5ShgJya0dwuhwNrG17C-214" value="0,n" style="edgeLabel;html=1;align=center;verticalAlign=middle;resizable=0;points=[];" parent="s5ShgJya0dwuhwNrG17C-213" vertex="1" connectable="0">
          <mxGeometry x="0.5979" y="-1" relative="1" as="geometry">
            <mxPoint as="offset" />
          </mxGeometry>
        </mxCell>
        <mxCell id="s5ShgJya0dwuhwNrG17C-215" value="alimentcontenir&lt;br&gt;&lt;br&gt;qtt" style="rounded=1;whiteSpace=wrap;html=1;" parent="1" vertex="1">
          <mxGeometry x="1040" y="-1140" width="120" height="60" as="geometry" />
        </mxCell>
        <mxCell id="s5ShgJya0dwuhwNrG17C-222" value="Aliments" style="swimlane;fontStyle=0;childLayout=stackLayout;horizontal=1;startSize=30;horizontalStack=0;resizeParent=1;resizeParentMax=0;resizeLast=0;collapsible=1;marginBottom=0;whiteSpace=wrap;html=1;" parent="1" vertex="1">
          <mxGeometry x="870" y="-1066" width="140" height="90" as="geometry" />
        </mxCell>
        <mxCell id="s5ShgJya0dwuhwNrG17C-235" value="id_aliment" style="text;strokeColor=none;fillColor=none;align=left;verticalAlign=middle;spacingLeft=4;spacingRight=4;overflow=hidden;points=[[0,0.5],[1,0.5]];portConstraint=eastwest;rotatable=0;whiteSpace=wrap;html=1;fontStyle=4" parent="s5ShgJya0dwuhwNrG17C-222" vertex="1">
          <mxGeometry y="30" width="140" height="30" as="geometry" />
        </mxCell>
        <mxCell id="s5ShgJya0dwuhwNrG17C-236" value="nom" style="text;strokeColor=none;fillColor=none;align=left;verticalAlign=middle;spacingLeft=4;spacingRight=4;overflow=hidden;points=[[0,0.5],[1,0.5]];portConstraint=eastwest;rotatable=0;whiteSpace=wrap;html=1;" parent="s5ShgJya0dwuhwNrG17C-222" vertex="1">
          <mxGeometry y="60" width="140" height="30" as="geometry" />
        </mxCell>
        <mxCell id="s5ShgJya0dwuhwNrG17C-266" value="NiveauSport" style="swimlane;fontStyle=0;childLayout=stackLayout;horizontal=1;startSize=30;horizontalStack=0;resizeParent=1;resizeParentMax=0;resizeLast=0;collapsible=1;marginBottom=0;whiteSpace=wrap;html=1;" parent="1" vertex="1">
          <mxGeometry x="184" y="-735" width="140" height="90" as="geometry" />
        </mxCell>
        <mxCell id="s5ShgJya0dwuhwNrG17C-267" value="id_sport" style="text;strokeColor=none;fillColor=none;align=left;verticalAlign=middle;spacingLeft=4;spacingRight=4;overflow=hidden;points=[[0,0.5],[1,0.5]];portConstraint=eastwest;rotatable=0;whiteSpace=wrap;html=1;fontStyle=4" parent="s5ShgJya0dwuhwNrG17C-266" vertex="1">
          <mxGeometry y="30" width="140" height="30" as="geometry" />
        </mxCell>
        <mxCell id="s5ShgJya0dwuhwNrG17C-268" value="nom" style="text;strokeColor=none;fillColor=none;align=left;verticalAlign=middle;spacingLeft=4;spacingRight=4;overflow=hidden;points=[[0,0.5],[1,0.5]];portConstraint=eastwest;rotatable=0;whiteSpace=wrap;html=1;" parent="s5ShgJya0dwuhwNrG17C-266" vertex="1">
          <mxGeometry y="60" width="140" height="30" as="geometry" />
        </mxCell>
        <mxCell id="s5ShgJya0dwuhwNrG17C-269" style="edgeStyle=orthogonalEdgeStyle;rounded=0;orthogonalLoop=1;jettySize=auto;html=1;endArrow=none;endFill=0;" parent="1" source="s5ShgJya0dwuhwNrG17C-271" target="s5ShgJya0dwuhwNrG17C-266" edge="1">
          <mxGeometry relative="1" as="geometry" />
        </mxCell>
        <mxCell id="s5ShgJya0dwuhwNrG17C-270" value="0,n" style="edgeLabel;html=1;align=center;verticalAlign=middle;resizable=0;points=[];" parent="s5ShgJya0dwuhwNrG17C-269" vertex="1" connectable="0">
          <mxGeometry x="-0.296" y="2" relative="1" as="geometry">
            <mxPoint y="62" as="offset" />
          </mxGeometry>
        </mxCell>
        <mxCell id="s5ShgJya0dwuhwNrG17C-271" value="être" style="rounded=1;whiteSpace=wrap;html=1;" parent="1" vertex="1">
          <mxGeometry x="10.000000000000057" y="-720" width="120" height="60" as="geometry" />
        </mxCell>
        <mxCell id="s5ShgJya0dwuhwNrG17C-277" style="edgeStyle=orthogonalEdgeStyle;rounded=0;orthogonalLoop=1;jettySize=auto;html=1;" parent="1" source="s5ShgJya0dwuhwNrG17C-274" target="s5ShgJya0dwuhwNrG17C-19" edge="1">
          <mxGeometry relative="1" as="geometry" />
        </mxCell>
        <mxCell id="s5ShgJya0dwuhwNrG17C-274" value="NiveauSport" style="swimlane;fontStyle=0;childLayout=stackLayout;horizontal=1;startSize=30;horizontalStack=0;resizeParent=1;resizeParentMax=0;resizeLast=0;collapsible=1;marginBottom=0;whiteSpace=wrap;html=1;fillColor=#dae8fc;strokeColor=#6c8ebf;" parent="1" vertex="1">
          <mxGeometry y="-148" width="140" height="90" as="geometry" />
        </mxCell>
        <mxCell id="s5ShgJya0dwuhwNrG17C-275" value="id_sport" style="text;strokeColor=none;fillColor=none;align=left;verticalAlign=middle;spacingLeft=4;spacingRight=4;overflow=hidden;points=[[0,0.5],[1,0.5]];portConstraint=eastwest;rotatable=0;whiteSpace=wrap;html=1;fontStyle=4" parent="s5ShgJya0dwuhwNrG17C-274" vertex="1">
          <mxGeometry y="30" width="140" height="30" as="geometry" />
        </mxCell>
        <mxCell id="s5ShgJya0dwuhwNrG17C-276" value="nom" style="text;strokeColor=none;fillColor=none;align=left;verticalAlign=middle;spacingLeft=4;spacingRight=4;overflow=hidden;points=[[0,0.5],[1,0.5]];portConstraint=eastwest;rotatable=0;whiteSpace=wrap;html=1;" parent="s5ShgJya0dwuhwNrG17C-274" vertex="1">
          <mxGeometry y="60" width="140" height="30" as="geometry" />
        </mxCell>
        <mxCell id="s5ShgJya0dwuhwNrG17C-278" value="val_nutritionnelle" style="swimlane;fontStyle=0;childLayout=stackLayout;horizontal=1;startSize=30;horizontalStack=0;resizeParent=1;resizeParentMax=0;resizeLast=0;collapsible=1;marginBottom=0;whiteSpace=wrap;html=1;fillColor=#dae8fc;strokeColor=#6c8ebf;" parent="1" vertex="1">
          <mxGeometry x="940" y="-315" width="140" height="90" as="geometry" />
        </mxCell>
        <mxCell id="s5ShgJya0dwuhwNrG17C-279" value="id_nutrition" style="text;strokeColor=none;fillColor=none;align=left;verticalAlign=middle;spacingLeft=4;spacingRight=4;overflow=hidden;points=[[0,0.5],[1,0.5]];portConstraint=eastwest;rotatable=0;whiteSpace=wrap;html=1;fontStyle=4" parent="s5ShgJya0dwuhwNrG17C-278" vertex="1">
          <mxGeometry y="30" width="140" height="30" as="geometry" />
        </mxCell>
        <mxCell id="s5ShgJya0dwuhwNrG17C-280" value="nom" style="text;strokeColor=none;fillColor=none;align=left;verticalAlign=middle;spacingLeft=4;spacingRight=4;overflow=hidden;points=[[0,0.5],[1,0.5]];portConstraint=eastwest;rotatable=0;whiteSpace=wrap;html=1;" parent="s5ShgJya0dwuhwNrG17C-278" vertex="1">
          <mxGeometry y="60" width="140" height="30" as="geometry" />
        </mxCell>
        <mxCell id="s5ShgJya0dwuhwNrG17C-286" style="edgeStyle=orthogonalEdgeStyle;rounded=0;orthogonalLoop=1;jettySize=auto;html=1;" parent="1" source="s5ShgJya0dwuhwNrG17C-281" target="s5ShgJya0dwuhwNrG17C-278" edge="1">
          <mxGeometry relative="1" as="geometry" />
        </mxCell>
        <mxCell id="s5ShgJya0dwuhwNrG17C-287" style="edgeStyle=orthogonalEdgeStyle;rounded=0;orthogonalLoop=1;jettySize=auto;html=1;" parent="1" source="s5ShgJya0dwuhwNrG17C-281" target="s5ShgJya0dwuhwNrG17C-5" edge="1">
          <mxGeometry relative="1" as="geometry" />
        </mxCell>
        <mxCell id="s5ShgJya0dwuhwNrG17C-281" value="composition_val_nutritionnelle" style="swimlane;fontStyle=0;childLayout=stackLayout;horizontal=1;startSize=30;horizontalStack=0;resizeParent=1;resizeParentMax=0;resizeLast=0;collapsible=1;marginBottom=0;whiteSpace=wrap;html=1;fillColor=#e1d5e7;strokeColor=#9673a6;" parent="1" vertex="1">
          <mxGeometry x="730" y="-330" width="140" height="120" as="geometry" />
        </mxCell>
        <mxCell id="s5ShgJya0dwuhwNrG17C-283" value="id_aliment" style="text;strokeColor=none;fillColor=none;align=left;verticalAlign=middle;spacingLeft=4;spacingRight=4;overflow=hidden;points=[[0,0.5],[1,0.5]];portConstraint=eastwest;rotatable=0;whiteSpace=wrap;html=1;fontStyle=4" parent="s5ShgJya0dwuhwNrG17C-281" vertex="1">
          <mxGeometry y="30" width="140" height="30" as="geometry" />
        </mxCell>
        <mxCell id="s5ShgJya0dwuhwNrG17C-282" value="id_nutrition" style="text;strokeColor=none;fillColor=none;align=left;verticalAlign=middle;spacingLeft=4;spacingRight=4;overflow=hidden;points=[[0,0.5],[1,0.5]];portConstraint=eastwest;rotatable=0;whiteSpace=wrap;html=1;fontStyle=4" parent="s5ShgJya0dwuhwNrG17C-281" vertex="1">
          <mxGeometry y="60" width="140" height="30" as="geometry" />
        </mxCell>
        <mxCell id="s5ShgJya0dwuhwNrG17C-284" value="quantite" style="text;strokeColor=none;fillColor=none;align=left;verticalAlign=middle;spacingLeft=4;spacingRight=4;overflow=hidden;points=[[0,0.5],[1,0.5]];portConstraint=eastwest;rotatable=0;whiteSpace=wrap;html=1;fontStyle=0" parent="s5ShgJya0dwuhwNrG17C-281" vertex="1">
          <mxGeometry y="90" width="140" height="30" as="geometry" />
        </mxCell>
        <mxCell id="B8DAwCKZ7RdaNlvgtHEw-1" value="&lt;b&gt;&lt;font style=&quot;font-size: 120px;&quot;&gt;BDD&lt;/font&gt;&lt;/b&gt;" style="text;html=1;strokeColor=none;fillColor=none;align=center;verticalAlign=middle;whiteSpace=wrap;rounded=0;" parent="1" vertex="1">
          <mxGeometry x="1260" y="-690" width="310" height="180" as="geometry" />
        </mxCell>
        <mxCell id="B8DAwCKZ7RdaNlvgtHEw-2" value="PHPmyadmin, users créés" style="text;html=1;strokeColor=none;fillColor=none;align=center;verticalAlign=middle;whiteSpace=wrap;rounded=0;" parent="1" vertex="1">
          <mxGeometry x="1310" y="-690" width="210" height="30" as="geometry" />
        </mxCell>
        <mxCell id="B8DAwCKZ7RdaNlvgtHEw-5" value="&lt;b&gt;&lt;font style=&quot;font-size: 120px;&quot;&gt;Back&lt;/font&gt;&lt;/b&gt;" style="text;html=1;strokeColor=none;fillColor=none;align=center;verticalAlign=middle;whiteSpace=wrap;rounded=0;" parent="1" vertex="1">
          <mxGeometry x="1750" y="-1130" width="310" height="180" as="geometry" />
        </mxCell>
        <mxCell id="B8DAwCKZ7RdaNlvgtHEw-6" value="" style="shape=flexArrow;endArrow=classic;html=1;rounded=0;width=52.94117647058824;endSize=85.63529411764706;fillColor=#F0F7FF;strokeColor=none;endWidth=87.12802768166091;exitX=0.75;exitY=0;exitDx=0;exitDy=0;" parent="1" source="B8DAwCKZ7RdaNlvgtHEw-2" target="B8DAwCKZ7RdaNlvgtHEw-5" edge="1">
          <mxGeometry width="50" height="50" relative="1" as="geometry">
            <mxPoint x="1580" y="-620" as="sourcePoint" />
            <mxPoint x="2250" y="-920" as="targetPoint" />
          </mxGeometry>
        </mxCell>
        <mxCell id="B8DAwCKZ7RdaNlvgtHEw-9" value="API GET POST" style="swimlane;fontStyle=0;childLayout=stackLayout;horizontal=1;startSize=30;horizontalStack=0;resizeParent=1;resizeParentMax=0;resizeLast=0;collapsible=1;marginBottom=0;whiteSpace=wrap;html=1;" parent="1" vertex="1">
          <mxGeometry x="1890" y="-960" width="140" height="150" as="geometry" />
        </mxCell>
        <mxCell id="B8DAwCKZ7RdaNlvgtHEw-10" value="GET tous les aliments en json" style="text;strokeColor=none;fillColor=none;align=left;verticalAlign=middle;spacingLeft=4;spacingRight=4;overflow=hidden;points=[[0,0.5],[1,0.5]];portConstraint=eastwest;rotatable=0;whiteSpace=wrap;html=1;" parent="B8DAwCKZ7RdaNlvgtHEw-9" vertex="1">
          <mxGeometry y="30" width="140" height="30" as="geometry" />
        </mxCell>
        <mxCell id="B8DAwCKZ7RdaNlvgtHEw-11" value="GET tous les utilisateurs" style="text;strokeColor=none;fillColor=none;align=left;verticalAlign=middle;spacingLeft=4;spacingRight=4;overflow=hidden;points=[[0,0.5],[1,0.5]];portConstraint=eastwest;rotatable=0;whiteSpace=wrap;html=1;" parent="B8DAwCKZ7RdaNlvgtHEw-9" vertex="1">
          <mxGeometry y="60" width="140" height="30" as="geometry" />
        </mxCell>
        <mxCell id="B8DAwCKZ7RdaNlvgtHEw-12" value="POST un user" style="text;strokeColor=none;fillColor=none;align=left;verticalAlign=middle;spacingLeft=4;spacingRight=4;overflow=hidden;points=[[0,0.5],[1,0.5]];portConstraint=eastwest;rotatable=0;whiteSpace=wrap;html=1;" parent="B8DAwCKZ7RdaNlvgtHEw-9" vertex="1">
          <mxGeometry y="90" width="140" height="30" as="geometry" />
        </mxCell>
        <mxCell id="B8DAwCKZ7RdaNlvgtHEw-13" value="POST un aliment" style="text;strokeColor=none;fillColor=none;align=left;verticalAlign=middle;spacingLeft=4;spacingRight=4;overflow=hidden;points=[[0,0.5],[1,0.5]];portConstraint=eastwest;rotatable=0;whiteSpace=wrap;html=1;" parent="B8DAwCKZ7RdaNlvgtHEw-9" vertex="1">
          <mxGeometry y="120" width="140" height="30" as="geometry" />
        </mxCell>
        <mxCell id="B8DAwCKZ7RdaNlvgtHEw-16" value="Catégorie" style="swimlane;fontStyle=0;childLayout=stackLayout;horizontal=1;startSize=30;horizontalStack=0;resizeParent=1;resizeParentMax=0;resizeLast=0;collapsible=1;marginBottom=0;whiteSpace=wrap;html=1;fillColor=#dae8fc;strokeColor=#6c8ebf;" parent="1" vertex="1">
          <mxGeometry x="827" y="-770" width="140" height="90" as="geometry" />
        </mxCell>
        <mxCell id="B8DAwCKZ7RdaNlvgtHEw-17" value="id_aliment" style="text;strokeColor=none;fillColor=none;align=left;verticalAlign=middle;spacingLeft=4;spacingRight=4;overflow=hidden;points=[[0,0.5],[1,0.5]];portConstraint=eastwest;rotatable=0;whiteSpace=wrap;html=1;fontStyle=4" parent="B8DAwCKZ7RdaNlvgtHEw-16" vertex="1">
          <mxGeometry y="30" width="140" height="30" as="geometry" />
        </mxCell>
        <mxCell id="B8DAwCKZ7RdaNlvgtHEw-18" value="nom" style="text;strokeColor=none;fillColor=none;align=left;verticalAlign=middle;spacingLeft=4;spacingRight=4;overflow=hidden;points=[[0,0.5],[1,0.5]];portConstraint=eastwest;rotatable=0;whiteSpace=wrap;html=1;" parent="B8DAwCKZ7RdaNlvgtHEw-16" vertex="1">
          <mxGeometry y="60" width="140" height="30" as="geometry" />
        </mxCell>
        <mxCell id="B8DAwCKZ7RdaNlvgtHEw-23" style="edgeStyle=orthogonalEdgeStyle;rounded=0;orthogonalLoop=1;jettySize=auto;html=1;" parent="1" source="B8DAwCKZ7RdaNlvgtHEw-19" target="s5ShgJya0dwuhwNrG17C-5" edge="1">
          <mxGeometry relative="1" as="geometry" />
        </mxCell>
        <mxCell id="B8DAwCKZ7RdaNlvgtHEw-24" style="edgeStyle=orthogonalEdgeStyle;rounded=0;orthogonalLoop=1;jettySize=auto;html=1;" parent="1" source="B8DAwCKZ7RdaNlvgtHEw-19" target="B8DAwCKZ7RdaNlvgtHEw-16" edge="1">
          <mxGeometry relative="1" as="geometry" />
        </mxCell>
        <mxCell id="B8DAwCKZ7RdaNlvgtHEw-19" value="aliment_categorie" style="swimlane;fontStyle=0;childLayout=stackLayout;horizontal=1;startSize=30;horizontalStack=0;resizeParent=1;resizeParentMax=0;resizeLast=0;collapsible=1;marginBottom=0;whiteSpace=wrap;html=1;fillColor=#e1d5e7;strokeColor=#9673a6;" parent="1" vertex="1">
          <mxGeometry x="660" y="-660" width="140" height="90" as="geometry" />
        </mxCell>
        <mxCell id="B8DAwCKZ7RdaNlvgtHEw-20" value="id_aliment" style="text;strokeColor=none;fillColor=none;align=left;verticalAlign=middle;spacingLeft=4;spacingRight=4;overflow=hidden;points=[[0,0.5],[1,0.5]];portConstraint=eastwest;rotatable=0;whiteSpace=wrap;html=1;fontStyle=4" parent="B8DAwCKZ7RdaNlvgtHEw-19" vertex="1">
          <mxGeometry y="30" width="140" height="30" as="geometry" />
        </mxCell>
        <mxCell id="B8DAwCKZ7RdaNlvgtHEw-21" value="id_categorie" style="text;strokeColor=none;fillColor=none;align=left;verticalAlign=middle;spacingLeft=4;spacingRight=4;overflow=hidden;points=[[0,0.5],[1,0.5]];portConstraint=eastwest;rotatable=0;whiteSpace=wrap;html=1;fontStyle=4" parent="B8DAwCKZ7RdaNlvgtHEw-19" vertex="1">
          <mxGeometry y="60" width="140" height="30" as="geometry" />
        </mxCell>
        <mxCell id="B8DAwCKZ7RdaNlvgtHEw-25" value="ajouter un aliment de la bdd openfoodwatch avec une api&lt;br&gt;&lt;br&gt;si le nom existe dans la bdd, proposer de renommer ou abandonner" style="text;strokeColor=#ae4132;fillColor=#fad9d5;align=left;verticalAlign=middle;spacingLeft=4;spacingRight=4;overflow=hidden;points=[[0,0.5],[1,0.5]];portConstraint=eastwest;rotatable=0;whiteSpace=wrap;html=1;" parent="1" vertex="1">
          <mxGeometry x="2068" y="-950" width="140" height="116" as="geometry" />
        </mxCell>
        <mxCell id="B8DAwCKZ7RdaNlvgtHEw-26" value="remplir la bdd avec un script qui va chercher dans le json&lt;br&gt;trouver un moyen pour pas trop mourir niveau aliments compexes decomposes en simples" style="text;strokeColor=#ae4132;fillColor=#fad9d5;align=left;verticalAlign=middle;spacingLeft=4;spacingRight=4;overflow=hidden;points=[[0,0.5],[1,0.5]];portConstraint=eastwest;rotatable=0;whiteSpace=wrap;html=1;" parent="1" vertex="1">
          <mxGeometry x="1570" y="-658" width="140" height="116" as="geometry" />
        </mxCell>
      </root>
    </mxGraphModel>
  </diagram>
</mxfile>
